<?xml version="1.0" encoding="UTF-8" standalone="no"?>
<svg
   xmlns:dc="http://purl.org/dc/elements/1.1/"
   xmlns:cc="http://creativecommons.org/ns#"
   xmlns:rdf="http://www.w3.org/1999/02/22-rdf-syntax-ns#"
   xmlns:svg="http://www.w3.org/2000/svg"
   xmlns="http://www.w3.org/2000/svg"
   viewBox="0 0 1593.35 1077.1899"
   height="1077.1899"
   width="1593.35"
   xml:space="preserve"
   id="svg2"
   version="1.1"><metadata
     id="metadata8"><rdf:RDF><cc:Work
         rdf:about=""><dc:format>image/svg+xml</dc:format><dc:type
           rdf:resource="http://purl.org/dc/dcmitype/StillImage" /></cc:Work></rdf:RDF></metadata><defs
     id="defs6" /><g
     transform="matrix(1.3333333,0,0,1.3333333,0,-1.4403585e-5)"
     id="g10"><g
       id="g12"><path
         id="path14"
         style="fill:#633315;fill-opacity:1;fill-rule:evenodd;stroke:none"
         d="m 680.469,409.98 c -0.024,0.75 -0.031,2.708 -0.145,4.633 -0.125,1.391 -0.508,2.403 -1.41,2.575 -0.457,0.14 -1.004,0.156 -1.656,0.156 -0.547,0.015 -0.766,0.09 -0.719,0.422 0.027,0.441 0.352,0.496 1.004,0.496 1.738,-0.032 4.664,-0.078 5.863,-0.09 1.297,0.004 4.207,0.066 7.141,0.019 0.644,0.008 1.004,-0.156 0.953,-0.488 0.031,-0.207 -0.262,-0.367 -0.699,-0.336 -0.653,0 -1.723,-0.074 -2.348,-0.179 -1.371,-0.235 -1.754,-1.165 -1.836,-2.586 -0.097,-1.973 -0.09,-3.918 -0.074,-4.676 l -0.008,-3.785 c 0.039,-1.516 0.067,-2.918 0.692,-4.653 0.882,-2.015 7.394,-12.929 9,-14.707 1.07,-1.222 1.492,-1.797 2.546,-2.269 0.7,-0.317 1.614,-0.594 2.043,-0.52 0.539,-0.023 0.891,-0.172 0.84,-0.508 0.051,-0.316 -0.367,-0.382 -0.812,-0.355 -0.856,-0.035 -3.906,0.098 -5,0.121 -1.41,-0.023 -2.805,-0.039 -4.336,0.023 -0.547,0.024 -0.774,0.09 -0.824,0.403 -0.055,0.316 0.367,0.39 0.89,0.48 0.824,0.25 0.961,0.707 1,1.149 0,0.644 -0.234,1.367 -0.625,2.386 -0.676,1.403 -6.644,11.645 -7.043,12.77 -0.758,-1.32 -7.168,-12.59 -7.82,-13.887 -0.309,-0.699 -0.555,-1.179 -0.594,-1.613 -0.031,-0.438 0.235,-0.723 0.692,-0.863 0.679,-0.211 1.011,-0.254 1.05,-0.473 0.051,-0.309 -0.265,-0.359 -0.683,-0.434 -2.055,-0.031 -4.02,0.075 -5.012,0.118 -1.508,-0.036 -4.98,0.023 -5.84,-0.012 -0.551,0.012 -0.894,0.164 -0.933,0.379 0.046,0.332 0.363,0.383 0.683,0.437 0.547,-0.015 1.352,0.336 1.942,0.653 0.894,0.48 1.996,1.64 3.226,3.367 1.645,2.445 7.801,12.695 8.117,13.394 0.621,1.411 1.012,2.332 1.02,4.832 l 0.027,3.68 z m -47.078,-17.964 0.105,0.023 c 0.816,0.895 5.992,6.758 10.981,11.828 4.804,4.824 10.699,10.914 13.574,13.785 0.554,0.524 1.011,1.036 1.551,1.02 0.437,-0.035 0.625,-0.434 0.562,-1.418 l 0.66,-29.34 c 0.008,-2.594 0.399,-3.613 1.75,-3.922 0.555,-0.121 0.891,-0.172 1.414,-0.09 0.551,-0.015 0.895,-0.164 0.828,-0.398 -0.054,-0.336 -0.472,-0.41 -1.015,-0.391 -2.262,-0.058 -4.02,0.078 -4.559,0.09 -0.969,-0.051 -3.246,-0.004 -5.633,0.024 -0.652,-0.008 -1.199,0.015 -1.265,0.429 -0.055,0.313 0.133,0.457 0.785,0.465 0.644,0 1.734,-0.039 2.437,0.301 1.106,0.508 1.508,1.34 1.571,4.16 l 0.359,20.852 -0.219,-0.032 c -0.734,-0.773 -7.066,-7.484 -10.191,-10.718 -6.75,-6.778 -13.785,-14.473 -14.34,-15 -0.824,-0.891 -1.148,-1.493 -1.695,-1.477 -0.442,0.039 -0.653,0.645 -0.61,1.629 l -0.562,27.516 c -0.027,4.007 -0.262,5.371 -1.516,5.699 -0.687,0.211 -1.437,0.187 -2.082,0.187 -0.437,0.039 -0.773,0.086 -0.722,0.422 0.039,0.434 0.453,0.512 1,0.496 2.39,-0.031 4.558,-0.09 5,-0.121 0.863,0.039 2.707,0.031 5.738,0 0.652,0 1.09,-0.031 1.058,-0.473 0.051,-0.316 -0.261,-0.367 -0.808,-0.351 -0.758,-0.023 -1.613,-0.063 -2.438,-0.309 -0.918,-0.367 -1.578,-1.566 -1.613,-5.144 l -0.359,-19.547 z m -31.516,12.183 c -0.066,4.215 -0.039,7.895 -0.277,9.922 -0.235,1.363 -0.414,2.414 -1.41,2.57 -0.434,0.032 -1.004,0.161 -1.649,0.161 -0.551,0.011 -0.773,0.089 -0.73,0.418 -0.043,0.316 0.355,0.496 0.894,0.48 0.969,0.051 2.184,-0.059 3.164,-0.113 1.082,-0.028 2.176,-0.059 2.594,0.008 1.402,0.031 2.805,0.046 4.84,0.171 2.054,0.032 4.527,0.122 8.09,0.188 1.742,-0.035 2.16,0.039 2.484,-1.207 0.262,-0.93 0.594,-4.125 0.668,-5.195 -0.039,-0.438 0.031,-0.856 -0.406,-0.821 -0.313,-0.051 -0.457,0.137 -0.547,0.66 -0.324,1.899 -0.922,2.883 -2.102,3.438 -1.176,0.555 -3.125,0.555 -4.422,0.555 -4.75,-0.055 -5.507,-0.723 -5.492,-3.969 0,-1.297 -0.023,-5.633 0.039,-7.246 l -0.031,-3.68 c 0.055,-0.316 0.074,-0.43 0.301,-0.496 1.078,-0.031 5.722,0.105 6.578,0.141 1.695,0.179 2.324,0.945 2.601,1.855 0.122,0.563 0.122,1.215 0.157,1.656 -0.028,0.211 0.039,0.434 0.472,0.407 0.438,-0.04 0.407,-0.473 0.368,-0.918 0.054,-0.313 0.152,-2.137 0.211,-3.106 0.179,-2.344 0.414,-3.066 0.359,-3.402 0.055,-0.317 -0.156,-0.352 -0.359,-0.383 -0.219,-0.039 -0.481,0.238 -0.758,0.621 -0.403,0.473 -1.071,0.578 -2.278,0.691 -1.089,0.032 -6.406,0.106 -7.48,0.032 -0.313,-0.055 -0.293,-0.16 -0.352,-0.496 l 0.051,-11.789 c 0.055,-0.317 0.078,-0.422 0.301,-0.497 0.961,0.051 5.828,0.129 6.562,0.247 2.332,0.293 2.786,0.804 3.071,1.718 0.222,0.578 0.304,1.352 0.254,1.672 0.031,0.434 0.097,0.668 0.433,0.617 0.317,0.051 0.367,-0.265 0.406,-0.472 0.09,-0.528 0.223,-2.567 0.309,-3.09 0.149,-2.141 0.344,-2.649 0.395,-2.973 0.031,-0.211 -0.028,-0.433 -0.262,-0.359 -0.219,-0.039 -0.563,0.121 -0.793,0.187 -0.356,0.157 -1.125,0.239 -1.996,0.309 -0.887,0.066 -10.184,0 -11.582,-0.023 -0.653,0 -1.723,-0.075 -2.914,-0.059 -1.196,0.012 -2.477,-0.106 -3.774,-0.106 -0.644,0 -0.984,0.043 -1.035,0.36 -0.055,0.316 0.262,0.367 0.785,0.457 0.653,0.008 1.41,0.031 1.809,0.203 1.562,0.367 1.867,1.078 2.047,2.617 0.062,1.531 0.062,2.828 0.054,9.863 l -0.089,8.211 z m -29.984,-8.347 c 0,-7.036 0.007,-8.336 0.156,-9.829 0.055,-1.609 0.512,-2.398 1.742,-2.625 0.563,-0.117 0.785,-0.195 1.32,-0.097 0.434,-0.028 0.664,-0.102 0.614,-0.434 0.05,-0.316 -0.36,-0.39 -1.012,-0.39 -1.613,-0.059 -4.563,0.089 -5.656,0.121 -1.078,0.031 -3.996,-0.032 -6.496,-0.024 -0.645,0 -0.981,0.047 -1.036,0.36 0.055,0.339 0.266,0.367 0.797,0.457 0.645,0.007 1.403,0.031 1.821,0.097 1.562,0.375 1.871,1.082 2.05,2.625 0.059,1.532 0.059,2.828 0.051,9.856 l -0.097,8.215 c -0.09,4.312 -0.043,7.894 -0.286,9.914 -0.23,1.363 -0.39,2.316 -1.41,2.578 -0.433,0.031 -0.996,0.16 -1.648,0.152 -0.547,0.024 -0.774,0.09 -0.723,0.418 -0.051,0.316 0.356,0.496 0.895,0.481 1.843,-0.016 4.769,-0.059 5.863,-0.09 1.195,-0.016 4.105,0.047 6.707,0.054 0.547,-0.015 0.891,-0.175 0.84,-0.503 0.039,-0.211 -0.254,-0.368 -0.594,-0.317 -0.547,0.016 -1.613,-0.059 -2.25,-0.164 -1.152,-0.195 -1.523,-1.23 -1.617,-2.551 -0.098,-1.965 -0.121,-5.652 -0.039,-9.965 l 0.066,-4.214 0.211,0.035 0.524,0.742 c 0.961,1.359 10.058,12.219 12.136,13.98 1.981,1.743 3.203,2.813 5.766,3.039 0.961,0.051 1.824,0.098 3.234,0.114 l 3.996,0.035 c 0.864,0.031 1.11,-0.141 1.157,-0.457 0.05,-0.317 -0.254,-0.367 -0.594,-0.317 -0.547,0.024 -1.492,-0.14 -2.918,-0.71 -2.535,-0.969 -4.566,-3.047 -6.613,-5.016 -1.762,-1.711 -10.809,-11.582 -12.481,-13.817 1.582,-1.679 8.715,-8.589 10.141,-9.976 2.062,-1.918 3.621,-2.848 5.023,-3.473 0.918,-0.277 2.043,-0.515 2.688,-0.515 0.441,-0.039 0.668,-0.098 0.719,-0.422 0.05,-0.313 -0.36,-0.391 -0.79,-0.457 -1.402,-0.028 -4.019,0.074 -5.421,0.047 -1.289,0 -3.786,0.007 -4.747,-0.047 -0.546,0.015 -0.773,0.09 -0.718,0.422 -0.055,0.312 0.156,0.351 0.574,0.425 0.422,0.075 0.684,0.442 0.594,0.969 -0.024,0.758 -0.989,1.996 -2.325,3.5 -1.359,1.613 -8.16,8.469 -9.734,10.149 l -0.211,-0.036 0.039,-2.16 z m -49.09,7.902 c -0.067,4.215 -0.043,7.891 -0.285,9.918 -0.231,1.363 -0.411,2.422 -1.407,2.578 -0.437,0.031 -1,0.156 -1.652,0.148 -0.547,0.024 -0.766,0.09 -0.719,0.43 0.051,0.328 0.352,0.496 0.891,0.473 0.961,0.058 2.176,-0.063 3.16,-0.106 1.086,-0.031 2.18,-0.066 2.594,0.008 1.41,0.024 2.812,0.043 4.844,0.172 2.054,0.023 4.531,0.121 8.093,0.18 1.739,-0.032 2.16,0.039 2.477,-1.207 0.269,-0.93 0.59,-4.118 0.664,-5.192 -0.027,-0.433 0.039,-0.859 -0.395,-0.824 -0.316,-0.051 -0.457,0.145 -0.55,0.668 -0.321,1.891 -0.922,2.871 -2.098,3.434 -1.18,0.554 -3.129,0.554 -4.426,0.55 -4.754,-0.046 -5.504,-0.722 -5.496,-3.961 0.008,-1.296 -0.016,-5.632 0.035,-7.246 l -0.019,-3.691 c 0.05,-0.313 0.074,-0.418 0.289,-0.492 1.09,-0.032 5.73,0.105 6.586,0.148 1.703,0.18 2.332,0.938 2.609,1.852 0.121,0.554 0.121,1.215 0.16,1.652 -0.039,0.207 0.028,0.434 0.473,0.402 0.433,-0.027 0.402,-0.472 0.367,-0.906 0.051,-0.316 0.149,-2.137 0.203,-3.113 0.18,-2.348 0.418,-3.067 0.36,-3.395 0.05,-0.316 -0.161,-0.363 -0.368,-0.39 -0.211,-0.032 -0.472,0.238 -0.757,0.629 -0.407,0.472 -1.075,0.57 -2.282,0.691 -1.086,0.035 -6.406,0.102 -7.476,0.027 -0.317,-0.05 -0.301,-0.156 -0.352,-0.488 l 0.051,-11.789 c -0.051,-0.336 0.074,-0.426 0.301,-0.488 0.961,0.054 5.82,0.121 6.562,0.25 2.332,0.293 2.782,0.793 3.059,1.711 0.234,0.574 0.316,1.347 0.262,1.664 0.031,0.433 0.097,0.668 0.437,0.613 0.305,0.055 0.359,-0.262 0.402,-0.473 0.09,-0.523 0.219,-2.554 0.309,-3.089 0.145,-2.137 0.34,-2.649 0.391,-2.961 0.039,-0.211 -0.039,-0.438 -0.262,-0.368 -0.211,-0.031 -0.563,0.118 -0.789,0.188 -0.352,0.164 -1.125,0.238 -1.996,0.305 -0.883,0.07 -10.184,0.007 -11.586,-0.02 -0.645,0 -1.719,-0.074 -2.91,-0.062 -1.2,0.015 -2.477,-0.098 -3.774,-0.098 -0.652,0 -0.98,0.055 -1.035,0.367 -0.051,0.309 0.266,0.363 0.789,0.461 0.653,0 1.41,0.02 1.809,0.195 1.551,0.375 1.867,1.079 2.039,2.625 0.066,1.528 0.066,2.825 0.058,9.852 l -0.097,8.215 z m -39.059,-7.184 c -0.105,-0.023 -0.316,-0.054 -0.285,-0.261 l 0.055,-0.969 c 0.004,-7.043 0.011,-8.34 0.156,-9.824 0.059,-1.614 0.516,-2.403 1.746,-2.625 0.555,-0.121 1,-0.157 1.313,-0.106 0.546,-0.023 0.886,-0.066 0.824,-0.406 0.054,-0.313 -0.367,-0.391 -1.02,-0.391 -1.843,0.016 -4.769,0.055 -5.855,0.09 -1.297,-0.004 -4.215,-0.066 -6.707,-0.058 -0.653,0 -0.981,0.054 -0.938,0.382 -0.051,0.317 0.266,0.368 0.797,0.465 0.645,0 1.402,0.024 1.82,0.098 1.563,0.367 1.868,1.074 2.051,2.617 0.059,1.531 0.059,2.828 0.051,9.863 l -0.098,8.211 c -0.082,4.313 -0.039,7.899 -0.277,9.918 -0.227,1.371 -0.391,2.317 -1.41,2.578 -0.434,0.032 -0.996,0.157 -1.649,0.157 -0.55,0.015 -0.773,0.082 -0.722,0.421 0.054,0.329 0.355,0.497 0.894,0.481 1.844,-0.016 4.77,-0.055 5.856,-0.09 1.297,0 4.215,0.067 7.246,0.035 0.547,-0.015 0.894,-0.172 0.953,-0.492 0.031,-0.211 -0.262,-0.367 -0.699,-0.34 -0.653,0 -1.723,-0.074 -2.356,-0.179 -1.363,-0.231 -1.617,-1.254 -1.828,-2.586 -0.211,-1.989 -0.226,-5.664 -0.144,-9.993 l 0.046,-4.101 c 0.032,-0.211 0.157,-0.293 0.262,-0.285 l 17.738,0.097 c 0.106,0.024 0.317,0.051 0.286,0.262 l -0.047,4.109 c -0.067,4.211 -0.043,7.891 -0.278,9.918 -0.23,1.364 -0.418,2.414 -1.41,2.571 -0.441,0.039 -1.004,0.16 -1.656,0.16 -0.539,0.012 -0.766,0.09 -0.719,0.418 0.051,0.336 0.352,0.496 1.004,0.496 1.844,-0.016 4.793,-0.16 5.86,-0.09 1.296,0.008 4.214,0.067 7.242,0.035 0.547,-0.015 0.894,-0.172 0.945,-0.484 0.031,-0.219 -0.262,-0.371 -0.695,-0.34 -0.653,-0.008 -1.727,-0.082 -2.356,-0.187 -1.367,-0.231 -1.629,-1.247 -1.851,-2.473 -0.203,-1.988 -0.235,-5.672 -0.145,-9.992 l 0.098,-8.211 c 0.008,-7.043 0.015,-8.34 0.156,-9.832 0.063,-1.614 0.52,-2.403 1.75,-2.625 0.555,-0.121 0.996,-0.16 1.313,-0.098 0.546,-0.016 0.875,-0.07 0.824,-0.406 0.051,-0.317 -0.367,-0.383 -1.02,-0.383 -1.847,0.008 -4.793,0.156 -5.859,0.082 -1.297,0 -4.215,-0.059 -6.703,-0.051 -0.653,0 -0.985,0.043 -0.938,0.383 0.051,0.328 0.262,0.367 0.785,0.457 0.653,0 1.411,0.02 1.809,0.203 1.559,0.367 1.867,1.078 1.934,2.594 0.07,1.531 0.062,2.828 0.054,9.863 l -0.054,0.957 c -0.036,0.219 -0.157,0.301 -0.262,0.285 l -17.738,-0.097 z m -32.976,6.742 c -0.067,4.215 -0.039,7.891 -0.278,9.915 -0.129,1.386 -0.414,2.421 -1.41,2.582 -0.457,0.14 -1.004,0.156 -1.652,0.156 -0.547,0.015 -0.77,0.082 -0.719,0.422 0.047,0.328 0.344,0.492 0.887,0.476 1.844,-0.011 4.793,-0.156 5.855,-0.09 1.297,0 4.215,0.071 7.36,0.063 0.546,-0.024 0.89,-0.172 0.839,-0.512 0.036,-0.211 -0.261,-0.367 -0.699,-0.336 -0.644,0 -1.715,-0.074 -2.347,-0.179 -1.364,-0.235 -1.625,-1.254 -1.852,-2.477 -0.211,-1.988 -0.234,-5.668 -0.148,-9.988 l 0.101,-19.043 5.82,0.125 c 4.098,0.16 5.387,1.457 5.508,2.664 l 0.016,0.547 c 0.101,0.668 0.172,0.894 0.492,0.953 0.316,0.051 0.367,-0.262 0.438,-0.684 -0.016,-1.199 0.207,-4.41 0.164,-5.39 0,-0.645 -0.055,-0.985 -0.383,-0.93 -0.211,-0.039 -0.563,0.117 -1.231,0.223 -0.668,0.097 -1.769,0.242 -3.172,0.218 l -18.39,-0.097 c -1.508,-0.032 -3.328,-0.129 -4.613,-0.239 -1.176,-0.089 -1.633,-0.601 -1.965,-0.55 -0.313,-0.051 -0.367,0.265 -0.586,0.879 -0.067,0.421 -0.996,4.589 -1.02,5.347 0.016,0.539 0.09,0.766 0.422,0.719 0.313,0.055 0.457,-0.141 0.531,-0.563 0.067,-0.418 0.368,-0.906 0.813,-1.589 0.719,-1.071 1.82,-1.207 4.551,-1.282 l 6.945,-0.121 -0.129,19.254 z" /><path
         id="path16"
         style="fill:#633315;fill-opacity:1;fill-rule:evenodd;stroke:none"
         d="m 708.27,403.77 c -0.211,-0.032 -0.196,-0.141 -0.157,-0.352 l 4.313,-11.395 c 0.035,-0.207 0.179,-0.402 0.285,-0.382 0.105,0.023 0.172,0.25 0.172,0.25 l 4.101,11.519 c 0.09,0.121 -0.05,0.317 -0.261,0.285 l -8.582,0.157 z m 9.414,2.574 c 0.207,0.035 0.425,0.074 0.492,0.297 l 3.633,9.82 c 0.222,0.578 -0.055,0.961 -0.407,1.125 -0.441,0.035 -0.668,0.105 -0.621,0.434 -0.054,0.316 0.598,0.316 1.453,0.351 3.774,0.098 7.125,0.137 8.746,0.188 1.731,-0.028 2.176,-0.059 2.137,-0.493 0.055,-0.316 -0.262,-0.367 -0.594,-0.324 -0.546,0.024 -1.296,0 -1.91,-0.219 -0.929,-0.261 -2.332,-0.937 -4.109,-5.136 -2.91,-7.102 -10.285,-26.106 -11.363,-28.68 -0.473,-1.051 -0.715,-1.531 -1.149,-1.492 -0.433,0.031 -0.742,0.523 -1.281,1.836 l -11.887,29.168 c -0.937,2.328 -1.855,3.91 -3.961,4.203 -0.34,0.051 -0.992,0.043 -1.425,0.082 -0.434,0.027 -0.555,0.117 -0.602,0.336 0.031,0.433 0.25,0.472 0.894,0.472 2.391,-0.031 5.004,-0.121 5.543,-0.136 1.411,0.023 3.457,0.039 4.868,0.07 0.539,-0.023 0.765,-0.09 0.816,-0.406 0.055,-0.317 -0.156,-0.352 -0.695,-0.336 h -0.649 c -1.41,-0.024 -1.843,-0.641 -1.82,-1.395 -0.016,-0.55 0.293,-1.683 0.691,-2.808 l 2.528,-6.606 c 0.05,-0.316 0.179,-0.406 0.386,-0.359 l 10.352,0.238 z" /><path
         style="fill:#c42026;fill-opacity:1;fill-rule:evenodd;stroke:none"
         d="m 296.281,508.5 v -0.023 h -0.008 v -0.024 l -0.007,-0.004 v -0.023 l -0.008,-0.008 v -0.008 l -0.008,-0.031 v -0.008 l -0.008,-0.027 -0.008,-0.008 v -0.024 l -0.007,-0.007 v -0.016 l -0.043,-0.172 -0.008,-0.008 v -0.015 l -0.008,-0.008 v -0.008 l -0.008,-0.012 v -0.023 l -0.008,-0.008 v -0.023 l -0.007,-0.016 -0.008,-0.012 v -0.023 l -0.008,-0.016 -0.008,-0.031 -0.008,-0.016 -0.011,-0.027 v -0.016 l -0.016,-0.039 -0.008,-0.007 -0.016,-0.051 -0.031,-0.059 -0.019,-0.062 v -0.008 l -0.032,-0.059 c -0.023,-0.066 -0.054,-0.144 -0.089,-0.218 v -0.016 l -0.032,-0.066 -0.007,-0.016 c -0.547,-1.266 -1.993,-3.695 -5.293,-4.988 h -0.008 c -0.43,-0.164 -0.887,-0.313 -1.387,-0.434 0,0 -1.66,-0.398 -3.316,-0.473 h -0.039 l -0.008,-0.007 h -0.141 l -0.156,-0.008 h -0.399 c 0,0 -1.441,0.453 -1.996,0.781 v 0.008 l 0.016,0.015 0.008,0.016 h 0.008 l 0.007,0.008 0.016,0.019 0.012,0.016 0.015,0.023 0.024,0.024 0.015,0.012 0.008,0.015 0.028,0.024 0.031,0.031 0.023,0.027 0.032,0.032 0.019,0.031 0.016,0.008 0.031,0.035 0.035,0.039 0.016,0.015 0.023,0.028 0.031,0.039 0.036,0.039 0.039,0.043 0.039,0.047 0.09,0.09 0.035,0.05 0.015,0.008 0.032,0.047 0.05,0.051 0.032,0.039 0.015,0.012 0.051,0.062 0.047,0.059 0.027,0.023 0.031,0.039 0.059,0.059 0.055,0.066 0.058,0.063 0.055,0.066 0.035,0.035 0.024,0.032 0.058,0.074 0.071,0.07 0.011,0.02 0.047,0.054 0.067,0.074 0.054,0.059 0.016,0.016 0.066,0.074 0.067,0.086 0.039,0.027 0.027,0.039 0.078,0.082 0.067,0.082 0.007,0.008 0.067,0.074 0.074,0.082 0.055,0.063 0.019,0.027 0.078,0.09 0.082,0.082 0.024,0.031 0.051,0.063 0.148,0.18 h 0.008 l 0.082,0.097 0.086,0.09 0.043,0.051 0.039,0.039 0.164,0.18 0.023,0.015 0.067,0.082 0.082,0.098 0.066,0.074 0.114,0.113 c 1.742,1.965 3.871,4.332 5.492,6.075 l 0.011,0.023 0.04,0.027 0.046,0.055 0.051,0.059 0.043,0.054 0.024,0.012 0.039,0.039 0.043,0.051 0.097,0.098 0.016,0.023 0.039,0.031 0.043,0.051 0.055,0.047 0.043,0.051 0.015,0.015 0.039,0.032 0.043,0.05 0.047,0.047 0.035,0.043 0.016,0.016 0.031,0.039 0.043,0.043 0.039,0.047 0.043,0.043 0.008,0.015 0.039,0.039 0.047,0.043 0.035,0.039 0.039,0.043 0.016,0.008 0.027,0.039 0.082,0.09 0.039,0.035 0.008,0.008 0.035,0.039 0.031,0.039 0.039,0.035 0.036,0.032 0.007,0.007 0.032,0.028 0.039,0.039 0.035,0.039 0.031,0.027 0.008,0.008 0.027,0.031 0.032,0.039 0.039,0.028 0.027,0.031 0.129,0.129 0.09,0.082 0.031,0.027 v 0.008 l 0.098,0.098 h 0.007 l 0.09,0.09 h 0.008 l 0.059,0.054 0.023,0.02 c 0.027,0.023 0.043,0.039 0.074,0.062 l 1.364,1.434 0.234,-0.039 v -0.008 l 0.008,-0.008 h 0.008 v -0.008 l 0.007,-0.007 0.012,-0.016 0.008,-0.008 0.008,-0.004 v -0.008 l 0.015,-0.015 0.008,-0.016 0.016,-0.008 v -0.007 l 0.015,-0.024 0.016,-0.012 v -0.007 l 0.02,-0.032 0.015,-0.015 0.008,-0.016 0.016,-0.027 h 0.007 l 0.016,-0.024 0.008,-0.023 0.008,-0.008 0.019,-0.031 0.016,-0.028 0.023,-0.031 v -0.008 l 0.024,-0.031 0.015,-0.035 0.02,-0.031 0.023,-0.028 0.024,-0.039 v -0.008 l 0.023,-0.031 0.004,-0.008 0.016,-0.027 0.015,-0.031 0.008,-0.008 0.024,-0.035 0.043,-0.086 v -0.008 l 0.023,-0.043 0.008,-0.023 0.015,-0.028 0.024,-0.046 0.012,-0.04 0.007,-0.019 0.024,-0.039 0.023,-0.051 0.008,-0.023 0.016,-0.039 v -0.008 c 0.019,-0.043 0.035,-0.098 0.051,-0.157 v -0.007 l 0.023,-0.059 v -0.008 l 0.023,-0.062 0.02,-0.059 0.016,-0.066 0.023,-0.067 0.016,-0.078 0.023,-0.066 0.012,-0.074 0.015,-0.075 h 0.008 l 0.016,-0.078 0.031,-0.164 0.008,-0.066 0.008,-0.031 0.011,-0.067 0.008,-0.09 v -0.007 l 0.016,-0.075 v -0.023 l 0.008,-0.074 0.015,-0.09 v -0.024 l 0.008,-0.066 v -0.008 c 0.043,-1.004 -0.039,-2.453 -0.547,-4.328 m 4.055,-35.301 1.082,-1.156 c 0.98,-0.922 2.004,-1.449 2.879,-0.629 1.082,1.004 6.269,14.707 20.984,23.805 0.75,0.457 4.18,1.992 2.61,3.679 -2.496,2.696 -9.207,7.301 -12.246,9.391 -1.997,1.375 -3.969,2.746 -5.903,4.008 -1.23,0.801 -4.664,2.969 -5.82,3.508 l -5.945,2.656 c -1.024,0.375 -1.93,0.629 -2.934,0.93 -1.02,0.293 -1.93,0.531 -2.957,0.703 -4.625,0.82 -9,1.215 -12.563,-2.09 -0.847,-0.789 -1.371,-2.133 -1.664,-3.008 -0.336,-1.035 -0.351,-1.93 -0.382,-2.965 -0.059,-1.617 0.097,-2.976 0.437,-4.574 0.117,-0.562 0.246,-0.969 0.367,-1.5 0.989,-4.32 3.059,-8.406 5.399,-12.187 1.304,-2.114 6.465,-9.024 8.152,-10.809 0.434,-0.465 1.035,-1.039 1.418,-1.535 l 3.996,-4.703 c 0.481,-0.512 0.953,-1.028 1.442,-1.539 0.464,-0.493 1.035,-1.25 1.648,-1.985 m -0.652,18.598 c -4.559,-4.246 -1.512,-6.914 0.078,-6.164 0.734,0.351 1.207,0.898 1.664,1.441 0.539,0.629 1.019,1.028 1.508,1.633 1.054,1.297 3.195,4.012 0.269,4.395 -1.262,0.164 -2.25,-0.125 -3.519,-1.305 m 9.078,9.578 c -1.801,-1.664 -4.352,-3.555 -2.289,-5.766 1.89,-2.035 8.16,4.805 7.05,5.993 -1.207,1.304 -4.011,0.476 -4.761,-0.227" /><path
         id="path38"
         style="fill:#c42026;fill-opacity:1;fill-rule:evenodd;stroke:none"
         d="m 294.023,513.766 c 0.028,0.023 0.043,0.035 0.067,0.05 -0.024,-0.007 -0.039,-0.027 -0.067,-0.05" /><path
         id="path40"
         style="fill:#c42026;fill-opacity:1;fill-rule:evenodd;stroke:none"
         d="m 273.246,557.25 h 149.055 v 6.359 H 273.246 Z" /><path
         id="path42"
         style="fill:#09090a;fill-opacity:1;fill-rule:evenodd;stroke:none"
         d="m 437.773,557.25 h 149.055 v 6.359 H 437.773 Z" /><path
         id="path44"
         style="fill:#b40000;fill-opacity:1;fill-rule:evenodd;stroke:none"
         d="m 602.309,557.25 h 149.055 v 6.359 H 602.309 Z" /><path
         id="path46"
         style="fill:#00913c;fill-opacity:1;fill-rule:evenodd;stroke:none"
         d="m 766.836,557.25 h 149.055 v 6.359 H 766.836 Z" /></g></g></svg>